<?xml version="1.0" standalone="no"?>
<!DOCTYPE svg PUBLIC "-//W3C//DTD SVG 20010904//EN"
 "http://www.w3.org/TR/2001/REC-SVG-20010904/DTD/svg10.dtd">
<svg version="1.0" xmlns="http://www.w3.org/2000/svg"
 width="48.000000pt" height="48.000000pt" viewBox="0 0 48.000000 48.000000"
 preserveAspectRatio="xMidYMid meet">

<g transform="translate(0.000000,48.000000) scale(0.100000,-0.100000)"
fill="#000000" stroke="none">
<path d="M92 280 c5 -169 14 -194 79 -217 85 -30 156 -7 192 62 23 44 34 171
23 249 l-7 46 -45 0 -44 0 0 -126 c0 -69 -5 -134 -10 -145 -14 -25 -52 -24
-76 2 -16 18 -19 40 -22 150 l-4 129 -45 0 -45 0 4 -150z"/>
</g>
</svg>
